<svg width="17" height="33" viewBox="0 0 17 33" fill="none" xmlns="http://www.w3.org/2000/svg">
<g id="Group 1">
<path id="Vector 1" d="M16.1248 7.99425H16.6142V7.97417L16.6125 7.95416L16.1248 7.99425ZM16.1248 21.7088L15.7668 22.0425L16.6142 22.9516V21.7088H16.1248ZM13.0686 8.11007C13.1326 8.37268 13.3973 8.5337 13.6599 8.46973C13.9225 8.40577 14.0836 8.14103 14.0196 7.87843L13.0686 8.11007ZM9.94002 3.26516L9.7724 3.72494L9.94002 3.26516ZM1.71743 8.04295C1.87073 6.50993 2.50339 4.44083 3.85793 2.96912C5.18034 1.53232 7.23249 0.615206 10.384 1.40654L10.6223 0.457238C7.13649 -0.418055 4.71234 0.595503 3.13776 2.30629C1.59532 3.98216 0.910312 6.27756 0.743512 7.94556L1.71743 8.04295ZM13.0563 2.80147C14.1358 3.71714 15.4052 5.21325 15.6371 8.03434L16.6125 7.95416C16.3545 4.81424 14.9155 3.09508 13.6894 2.05505L13.0563 2.80147ZM15.6354 7.99425V21.7088H16.6142V7.99425H15.6354ZM16.4828 21.3752L6.58138 10.7525L5.8654 11.4198L15.7668 22.0425L16.4828 21.3752ZM5.01949 8.01219C4.979 7.03974 5.29676 5.81808 6.50906 4.65336L5.83095 3.94755C4.41006 5.31268 3.98977 6.80897 4.04156 8.05291L5.01949 8.01219ZM9.7724 3.72494C10.9789 4.16478 12.3927 5.33543 13.0686 8.11007L14.0196 7.87843C13.276 4.82595 11.6581 3.37062 10.1076 2.80537L9.7724 3.72494ZM6.50906 4.65336C7.432 3.76664 8.69433 3.33191 9.7724 3.72494L10.1076 2.80537C8.56289 2.2422 6.92114 2.90014 5.83095 3.94755L6.50906 4.65336ZM6.58138 10.7525C5.74879 9.85921 5.06093 9.00738 5.01949 8.01219L4.04156 8.05291C4.10003 9.45693 5.06071 10.5565 5.8654 11.4198L6.58138 10.7525ZM10.384 1.40654C11.3609 1.65184 12.2791 2.14229 13.0563 2.80147L13.6894 2.05505C12.8071 1.30668 11.7559 0.741863 10.6223 0.457238L10.384 1.40654Z" fill="white"/>
<path id="Vector 2" d="M16.6116 24.4806C16.6379 24.2116 16.4412 23.9722 16.1722 23.9459C15.9032 23.9195 15.6638 24.1162 15.6375 24.3852L16.6116 24.4806ZM5.28556 31.1344L5.13076 31.5987L5.28556 31.1344ZM1.23018 24.4329H0.740789V24.4526L0.742367 24.4722L1.23018 24.4329ZM1.23018 10.4275L1.59163 10.0976L0.740789 9.16539V10.4275H1.23018ZM11.1535 21.2995L11.515 20.9696L11.1535 21.2995ZM12.8223 24.347L13.311 24.322L12.8223 24.347ZM15.6375 24.3852C15.4737 26.0577 14.6987 28.2388 13.0958 29.6881C11.5277 31.1058 9.09502 31.8889 5.44037 30.6702L5.13076 31.5987C9.07075 32.9125 11.8855 32.1017 13.7522 30.4141C15.584 28.7579 16.4313 26.322 16.6116 24.4806L15.6375 24.3852ZM5.44037 30.6702C5.14906 30.5731 4.29696 30.0674 3.46949 29.0267C2.65611 28.0038 1.88645 26.4868 1.71798 24.3937L0.742367 24.4722C0.927824 26.7764 1.78032 28.475 2.70339 29.6359C3.61236 30.779 4.61099 31.4254 5.13076 31.5987L5.44037 30.6702ZM1.71956 24.4329V10.4275H0.740789V24.4329H1.71956ZM0.868716 10.7574L10.7921 21.6294L11.515 20.9696L1.59163 10.0976L0.868716 10.7574ZM12.3336 24.372C12.3648 24.9821 12.2617 25.6811 11.9125 26.3999L12.793 26.8276C13.2203 25.9476 13.35 25.0823 13.311 24.322L12.3336 24.372ZM6.08822 27.8387C5.36647 27.1312 4.69354 26.0241 4.28691 24.3194L3.33485 24.5465C3.77647 26.3979 4.52765 27.6795 5.40305 28.5377L6.08822 27.8387ZM11.9125 26.3999C11.3872 27.4815 10.3453 28.265 9.20948 28.5586C8.07764 28.8511 6.91153 28.6458 6.08822 27.8387L5.40305 28.5377C6.52201 29.6345 8.06532 29.8652 9.45441 29.5062C10.8395 29.1482 12.13 28.1926 12.793 26.8276L11.9125 26.3999ZM10.7921 21.6294C11.6079 22.5232 12.2827 23.3781 12.3336 24.372L13.311 24.322C13.24 22.9334 12.3074 21.8378 11.515 20.9696L10.7921 21.6294Z" fill="white"/>
</g>
</svg>
